# xmcd
#
# Track frame offsets: 
#        150
#        15900
#        31825
#        51672
#        73857
#        90306
#        111241
#        129447
#        152456
#        171447
#
# Disc length: 2544 seconds
#
# Revision: 0
# Processed by: cddbd v1.5.2PL0 Copyright (c) Steve Scherf et al.
# Submitted via: ExactAudioCopy v0.99pb5
#
DISCID=7a09ee0a
DTITLE=Nick Colionne - Feel The Heat
DYEAR=2011
DGENRE=Blues
TTITLE0=Some Funky
TTITLE1=The Windy Dance
TTITLE2=Let's Spend Some Time
TTITLE3=The Connection
TTITLE4=There It Is
TTITLE5=Midnight And You
TTITLE6=It's Gonna Be Alright
TTITLE7=Wessin'
TTITLE8=Can't Let Go
TTITLE9=Po' House
EXTD=
EXTT0=
EXTT1=
EXTT2=
EXTT3=
EXTT4=
EXTT5=
EXTT6=
EXTT7=
EXTT8=
EXTT9=
PLAYORDER=
